<svg xmlns="http://www.w3.org/2000/svg" viewBox="0 0 512 512" role="img" aria-labelledby="logoTitle">
  <title id="logoTitle">Little Customer Registration Logo</title>
  <rect width="512" height="512" fill="#000000"/>

  <path d="M104 118 C118 126, 128 132, 138 148 C144 208, 150 266, 158 348 C132 286, 108 224, 86 162 C90 140, 96 126, 104 118 Z" fill="#14A44D"/>
  <path d="M150 68 C172 74, 188 82, 198 94 C186 170, 178 230, 168 292 C162 214, 156 142, 150 68 Z" fill="#1E7ACB"/>
  <path d="M208 48 C254 56, 286 84, 302 132 C286 196, 272 256, 248 320 C220 244, 202 168, 208 48 Z" fill="#ED1C2E"/>

  <path d="M266 270 C176 270, 104 340, 104 426 C104 512, 176 582, 266 582 C352 582, 424 516, 430 432 L356 448 C348 494, 312 528, 266 528 C214 528, 172 482, 172 426 C172 370, 214 324, 266 324 C310 324, 346 354, 356 398 L430 384 C420 316, 350 270, 266 270 Z" fill="#F0B91B" transform="translate(0 -118)"/>
</svg>
